<svg width="36" height="36" viewBox="0 0 36 36" fill="none" xmlns="http://www.w3.org/2000/svg">
<circle opacity="0.343878" cx="18" cy="18" r="17.5" stroke="#6957ED"/>
<rect opacity="0.01" width="24" height="24" transform="matrix(0 -1 -1 0 30 30)" fill="black"/>
<path d="M25 19H13.14L16.77 23.36C17.1235 23.7853 17.0653 24.4165 16.64 24.77C16.2147 25.1235 15.5835 25.0653 15.23 24.64L10.23 18.64C10.1964 18.5923 10.1663 18.5421 10.14 18.49C10.14 18.44 10.09 18.41 10.07 18.36C10.0247 18.2453 10.0009 18.1233 10 18C10.0009 17.8767 10.0247 17.7547 10.07 17.64C10.07 17.59 10.12 17.56 10.14 17.51C10.1663 17.4579 10.1964 17.4077 10.23 17.36L15.23 11.36C15.4204 11.1315 15.7026 10.9995 16 11C16.2337 10.9995 16.4601 11.0809 16.64 11.23C16.8445 11.3996 16.9731 11.6435 16.9975 11.908C17.0219 12.1726 16.9401 12.4359 16.77 12.64L13.14 17H25C25.5523 17 26 17.4477 26 18C26 18.5523 25.5523 19 25 19Z" fill="#6957ED"/>
</svg>
